<svg xmlns="http://www.w3.org/2000/svg" viewBox="0 0 760 700" role="img" aria-label="Regional capability preview: industrial facilities, energy infrastructure, network context and stylised spatial constraints in one analytical frame"><rect width="760" height="700" fill="#122132"/><ellipse cx="200" cy="180" rx="150" ry="95" fill="#2f7d6b" fill-opacity="0.14"/><ellipse cx="560" cy="470" rx="180" ry="120" fill="#2f7d6b" fill-opacity="0.12"/><path d="M6,561 L17,553 L30,549 L46,549" fill="none" stroke="#7d8a93" stroke-width="1.4" stroke-opacity="0.7"/><path d="M43,534 L37,535 L31,538 L24,541 L18,544 L11,547 L6,552" fill="none" stroke="#7d8a93" stroke-width="1.4" stroke-opacity="0.7"/><path d="M235,103 L226,101 L218,96 L213,88 L212,80 L211,71 L208,61 L206,52 L203,43 L199,35 L201,31 L211,27" fill="none" stroke="#7d8a93" stroke-width="1.4" stroke-opacity="0.7"/><path d="M343,478 L346,476" fill="none" stroke="#7d8a93" stroke-width="1.4" stroke-opacity="0.7"/><path d="M335,481 L337,483 L338,485 L341,485 L344,484 L344,481" fill="none" stroke="#7d8a93" stroke-width="1.4" stroke-opacity="0.7"/><path d="M343,478 L341,477" fill="none" stroke="#7d8a93" stroke-width="1.4" stroke-opacity="0.7"/><path d="M344,493 L348,495 L352,498 L354,503 L357,508 L359,512 L362,517 L364,522 L367,527 L369,532" fill="none" stroke="#7d8a93" stroke-width="1.4" stroke-opacity="0.7"/><path d="M370,534 L375,545 L384,555" fill="none" stroke="#7d8a93" stroke-width="1.4" stroke-opacity="0.7"/><path d="M335,481 L334,478 L333,474 L328,470 L323,466 L319,462 L316,458 L311,454" fill="none" stroke="#7d8a93" stroke-width="1.4" stroke-opacity="0.7"/><path d="M345,481 L344,485 L345,489 L342,491 L344,494" fill="none" stroke="#7d8a93" stroke-width="1.4" stroke-opacity="0.7"/><path d="M335,481 L338,479" fill="none" stroke="#7d8a93" stroke-width="1.4" stroke-opacity="0.7"/><path d="M51,549 L66,548 L80,547 L95,545 L110,543 L125,542 L138,537 L153,534 L167,531 L182,529 L196,528 L211,527 L225,523 L238,517 L252,511 L265,507 L280,504 L293,498 L306,493 L318,486 L332,481" fill="none" stroke="#7d8a93" stroke-width="1.4" stroke-opacity="0.7"/><path d="M335,481 L336,483 L338,485 L340,485 L343,484 L345,483 L345,481" fill="none" stroke="#7d8a93" stroke-width="1.4" stroke-opacity="0.7"/><path d="M9,667 L22,667 L35,666 L48,662 L61,659 L73,655 L86,652 L99,650" fill="none" stroke="#7d8a93" stroke-width="1.4" stroke-opacity="0.7"/><path d="M214,36 L216,33 L217,29 L214,27" fill="none" stroke="#7d8a93" stroke-width="1.4" stroke-opacity="0.7"/><path d="M209,128 L212,127 L216,126 L220,125 L224,124 L228,123 L231,121 L235,119 L238,116 L240,113 L239,111 L238,108 L236,105 L234,104" fill="none" stroke="#7d8a93" stroke-width="1.4" stroke-opacity="0.7"/><circle cx="207" cy="127" r="3" fill="#f07820" fill-opacity="0.85"/><circle cx="311" cy="452" r="2.2" fill="#f07820" fill-opacity="0.85"/><circle cx="339" cy="484" r="3" fill="#f07820" fill-opacity="0.85"/><circle cx="532" cy="267" r="2.2" fill="#f07820" fill-opacity="0.85"/><circle cx="746" cy="248" r="2.2" fill="#f07820" fill-opacity="0.85"/><circle cx="442" cy="229" r="3" fill="#f07820" fill-opacity="0.85"/><circle cx="297" cy="235" r="2.2" fill="#f07820" fill-opacity="0.85"/><circle cx="670" cy="127" r="3" fill="#f07820" fill-opacity="0.85"/><circle cx="345" cy="477" r="3" fill="#f07820" fill-opacity="0.85"/><circle cx="200" cy="274" r="2.2" fill="#f07820" fill-opacity="0.85"/><circle cx="339" cy="477" r="3" fill="#f07820" fill-opacity="0.85"/><circle cx="318" cy="235" r="3" fill="#f07820" fill-opacity="0.85"/><circle cx="352" cy="566" r="3" fill="#f07820" fill-opacity="0.85"/><circle cx="332" cy="484" r="3" fill="#f07820" fill-opacity="0.85"/><circle cx="214" cy="382" r="2.2" fill="#f07820" fill-opacity="0.85"/><circle cx="456" cy="235" r="2.2" fill="#f07820" fill-opacity="0.85"/><circle cx="283" cy="452" r="3" fill="#f07820" fill-opacity="0.85"/><circle cx="193" cy="127" r="2.2" fill="#f07820" fill-opacity="0.85"/><circle cx="48" cy="541" r="3" fill="#f07820" fill-opacity="0.85"/><circle cx="69" cy="566" r="2.2" fill="#f07820" fill-opacity="0.85"/><circle cx="214" cy="38" r="2.2" fill="#f07820" fill-opacity="0.85"/><circle cx="235" cy="102" r="3" fill="#f07820" fill-opacity="0.85"/><circle cx="221" cy="32" r="2.2" fill="#f07820" fill-opacity="0.85"/><circle cx="345" cy="490" r="3" fill="#f07820" fill-opacity="0.85"/><circle cx="366" cy="535" r="3" fill="#f07820" fill-opacity="0.85"/><circle cx="408" cy="624" r="2.2" fill="#f07820" fill-opacity="0.85"/><circle cx="352" cy="484" r="2.2" fill="#f07820" fill-opacity="0.85"/><circle cx="366" cy="433" r="2.2" fill="#f07820" fill-opacity="0.85"/><circle cx="332" cy="490" r="2.2" fill="#f07820" fill-opacity="0.85"/><circle cx="235" cy="115" r="3" fill="#f07820" fill-opacity="0.85"/><circle cx="318" cy="242" r="3" fill="#f07820" fill-opacity="0.85"/><circle cx="387" cy="471" r="2.2" fill="#f07820" fill-opacity="0.85"/><circle cx="332" cy="433" r="3" fill="#f07820" fill-opacity="0.85"/><circle cx="387" cy="662" r="3" fill="#f07820" fill-opacity="0.85"/><circle cx="387" cy="649" r="2.2" fill="#f07820" fill-opacity="0.85"/><circle cx="387" cy="694" r="2.2" fill="#f07820" fill-opacity="0.85"/><circle cx="345" cy="471" r="3" fill="#f07820" fill-opacity="0.85"/><circle cx="35" cy="414" r="2.2" fill="#f07820" fill-opacity="0.85"/><circle cx="35" cy="382" r="2.2" fill="#f07820" fill-opacity="0.85"/><circle cx="304" cy="503" r="3" fill="#f07820" fill-opacity="0.85"/><circle cx="304" cy="509" r="2.2" fill="#f07820" fill-opacity="0.85"/><circle cx="111" cy="649" r="2.2" fill="#f07820" fill-opacity="0.85"/><circle cx="221" cy="382" r="2.2" fill="#f07820" fill-opacity="0.85"/><circle cx="366" cy="509" r="2.2" fill="#f07820" fill-opacity="0.85"/><circle cx="311" cy="115" r="2.2" fill="#f07820" fill-opacity="0.85"/><circle cx="228" cy="388" r="3" fill="#f07820" fill-opacity="0.85"/><circle cx="235" cy="452" r="2.2" fill="#f07820" fill-opacity="0.85"/><circle cx="532" cy="172" r="2.2" fill="#f07820" fill-opacity="0.85"/><circle cx="421" cy="165" r="2.2" fill="#f07820" fill-opacity="0.85"/><circle cx="7" cy="617" r="2.2" fill="#f07820" fill-opacity="0.85"/><circle cx="325" cy="242" r="3" fill="#f07820" fill-opacity="0.85"/><circle cx="311" cy="477" r="2.2" fill="#f07820" fill-opacity="0.85"/><circle cx="484" cy="204" r="2.2" fill="#f07820" fill-opacity="0.85"/><circle cx="352" cy="579" r="2.2" fill="#f07820" fill-opacity="0.85"/><circle cx="297" cy="509" r="2.2" fill="#f07820" fill-opacity="0.85"/><circle cx="352" cy="185" r="2.2" fill="#f07820" fill-opacity="0.85"/><circle cx="318" cy="280" r="3" fill="#f07820" fill-opacity="0.85"/><circle cx="311" cy="471" r="3" fill="#f07820" fill-opacity="0.85"/><circle cx="214" cy="83" r="2.2" fill="#f07820" fill-opacity="0.85"/><circle cx="463" cy="235" r="2.2" fill="#f07820" fill-opacity="0.85"/><circle cx="477" cy="267" r="2.2" fill="#f07820" fill-opacity="0.85"/><circle cx="297" cy="216" r="3" fill="#f07820" fill-opacity="0.85"/><circle cx="249" cy="146" r="2.2" fill="#f07820" fill-opacity="0.85"/><circle cx="221" cy="76" r="3" fill="#f07820" fill-opacity="0.85"/><circle cx="297" cy="178" r="3" fill="#f07820" fill-opacity="0.85"/><circle cx="214" cy="25" r="2.2" fill="#f07820" fill-opacity="0.85"/><circle cx="401" cy="223" r="3" fill="#f07820" fill-opacity="0.85"/><circle cx="366" cy="528" r="2.2" fill="#f07820" fill-opacity="0.85"/><circle cx="470" cy="229" r="3" fill="#f07820" fill-opacity="0.85"/><circle cx="339" cy="522" r="3" fill="#f07820" fill-opacity="0.85"/><circle cx="311" cy="503" r="2.2" fill="#f07820" fill-opacity="0.85"/><circle cx="352" cy="477" r="2.2" fill="#f07820" fill-opacity="0.85"/><circle cx="366" cy="554" r="2.2" fill="#f07820" fill-opacity="0.85"/><circle cx="580" cy="617" r="2.2" fill="#f07820" fill-opacity="0.85"/><circle cx="339" cy="458" r="2.2" fill="#f07820" fill-opacity="0.85"/><circle cx="359" cy="458" r="3" fill="#f07820" fill-opacity="0.85"/><circle cx="352" cy="433" r="2.2" fill="#f07820" fill-opacity="0.85"/><circle cx="373" cy="541" r="3" fill="#f07820" fill-opacity="0.85"/><circle cx="373" cy="605" r="2.2" fill="#f07820" fill-opacity="0.85"/><circle cx="387" cy="242" r="2.2" fill="#f07820" fill-opacity="0.85"/><circle cx="200" cy="687" r="2.2" fill="#f07820" fill-opacity="0.85"/><circle cx="345" cy="573" r="2.2" fill="#f07820" fill-opacity="0.85"/><circle cx="214" cy="45" r="2.2" fill="#f07820" fill-opacity="0.85"/><circle cx="41" cy="407" r="2.2" fill="#f07820" fill-opacity="0.85"/><circle cx="470" cy="280" r="2.2" fill="#f07820" fill-opacity="0.85"/><circle cx="373" cy="535" r="2.2" fill="#f07820" fill-opacity="0.85"/><circle cx="394" cy="515" r="2.2" fill="#f07820" fill-opacity="0.85"/><circle cx="366" cy="585" r="2.2" fill="#f07820" fill-opacity="0.85"/><circle cx="366" cy="598" r="2.2" fill="#f07820" fill-opacity="0.85"/><circle cx="345" cy="585" r="2.2" fill="#f07820" fill-opacity="0.85"/><circle cx="352" cy="573" r="3" fill="#f07820" fill-opacity="0.85"/><circle cx="442" cy="573" r="2.2" fill="#f07820" fill-opacity="0.85"/><circle cx="200" cy="267" r="2.2" fill="#f07820" fill-opacity="0.85"/><circle cx="484" cy="235" r="2.2" fill="#f07820" fill-opacity="0.85"/><circle cx="435" cy="261" r="2.2" fill="#f07820" fill-opacity="0.85"/><circle cx="276" cy="45" r="2.2" fill="#f07820" fill-opacity="0.85"/><circle cx="408" cy="433" r="2.2" fill="#f07820" fill-opacity="0.85"/><circle cx="421" cy="496" r="2.2" fill="#f07820" fill-opacity="0.85"/><circle cx="311" cy="509" r="2.2" fill="#f07820" fill-opacity="0.85"/><circle cx="297" cy="433" r="2.2" fill="#f07820" fill-opacity="0.85"/><circle cx="463" cy="401" r="2.2" fill="#f07820" fill-opacity="0.85"/><circle cx="491" cy="325" r="2.2" fill="#f07820" fill-opacity="0.85"/><circle cx="456" cy="356" r="2.2" fill="#f07820" fill-opacity="0.85"/><circle cx="359" cy="509" r="3" fill="#f07820" fill-opacity="0.85"/><circle cx="276" cy="153" r="2.2" fill="#f07820" fill-opacity="0.85"/><circle cx="276" cy="51" r="2.2" fill="#f07820" fill-opacity="0.85"/><circle cx="283" cy="471" r="2.2" fill="#f07820" fill-opacity="0.85"/><circle cx="214" cy="350" r="2.2" fill="#f07820" fill-opacity="0.85"/><circle cx="235" cy="108" r="2.2" fill="#f07820" fill-opacity="0.85"/><circle cx="304" cy="210" r="2.2" fill="#f07820" fill-opacity="0.85"/><circle cx="69" cy="64" r="2.2" fill="#f07820" fill-opacity="0.85"/><circle cx="124" cy="191" r="2.2" fill="#f07820" fill-opacity="0.85"/><circle cx="387" cy="547" r="2.2" fill="#f07820" fill-opacity="0.85"/><circle cx="311" cy="445" r="2.2" fill="#f07820" fill-opacity="0.85"/><circle cx="290" cy="426" r="2.2" fill="#f07820" fill-opacity="0.85"/><circle cx="325" cy="445" r="2.2" fill="#f07820" fill-opacity="0.85"/><circle cx="318" cy="439" r="2.2" fill="#f07820" fill-opacity="0.85"/><circle cx="290" cy="337" r="2.2" fill="#f07820" fill-opacity="0.85"/><circle cx="269" cy="452" r="2.2" fill="#f07820" fill-opacity="0.85"/><circle cx="35" cy="146" r="2.2" fill="#f07820" fill-opacity="0.85"/><circle cx="276" cy="458" r="2.2" fill="#f07820" fill-opacity="0.85"/><circle cx="180" cy="528" r="2.2" fill="#f07820" fill-opacity="0.85"/><circle cx="366" cy="484" r="2.2" fill="#f07820" fill-opacity="0.85"/><circle cx="214" cy="70" r="2.2" fill="#f07820" fill-opacity="0.85"/><circle cx="214" cy="127" r="2.2" fill="#f07820" fill-opacity="0.85"/><circle cx="297" cy="375" r="2.2" fill="#f07820" fill-opacity="0.85"/><circle cx="470" cy="204" r="2.2" fill="#f07820" fill-opacity="0.85"/><circle cx="463" cy="115" r="2.2" fill="#f07820" fill-opacity="0.85"/><circle cx="463" cy="76" r="2.2" fill="#f07820" fill-opacity="0.85"/><circle cx="456" cy="108" r="2.2" fill="#f07820" fill-opacity="0.85"/><circle cx="359" cy="535" r="2.2" fill="#f07820" fill-opacity="0.85"/><circle cx="345" cy="611" r="2.2" fill="#f07820" fill-opacity="0.85"/><circle cx="35" cy="140" r="3" fill="#f07820" fill-opacity="0.85"/><circle cx="269" cy="407" r="2.2" fill="#f07820" fill-opacity="0.85"/><circle cx="401" cy="509" r="2.2" fill="#f07820" fill-opacity="0.85"/><circle cx="421" cy="522" r="2.2" fill="#f07820" fill-opacity="0.85"/><circle cx="90" cy="668" r="2.2" fill="#f07820" fill-opacity="0.85"/><circle cx="297" cy="172" r="2.2" fill="#f07820" fill-opacity="0.85"/><circle cx="304" cy="172" r="2.2" fill="#f07820" fill-opacity="0.85"/><circle cx="76" cy="579" r="2.2" fill="#f07820" fill-opacity="0.85"/><circle cx="21" cy="503" r="2.2" fill="#f07820" fill-opacity="0.85"/><circle cx="359" cy="515" r="2.2" fill="#f07820" fill-opacity="0.85"/><circle cx="366" cy="522" r="2.2" fill="#f07820" fill-opacity="0.85"/><circle cx="359" cy="522" r="2.2" fill="#f07820" fill-opacity="0.85"/><circle cx="366" cy="490" r="2.2" fill="#f07820" fill-opacity="0.85"/><circle cx="290" cy="522" r="2.2" fill="#f07820" fill-opacity="0.85"/><circle cx="408" cy="598" r="2.2" fill="#f07820" fill-opacity="0.85"/><circle cx="352" cy="515" r="2.2" fill="#f07820" fill-opacity="0.85"/><circle cx="41" cy="541" r="3" fill="#f07820" fill-opacity="0.85"/><circle cx="387" cy="560" r="2.2" fill="#f07820" fill-opacity="0.85"/><circle cx="394" cy="566" r="2.2" fill="#f07820" fill-opacity="0.85"/><circle cx="380" cy="554" r="3" fill="#f07820" fill-opacity="0.85"/><circle cx="352" cy="535" r="2.2" fill="#f07820" fill-opacity="0.85"/><circle cx="207" cy="153" r="2.2" fill="#f07820" fill-opacity="0.85"/><circle cx="152" cy="426" r="2.2" fill="#f07820" fill-opacity="0.85"/><circle cx="55" cy="547" r="2.2" fill="#f07820" fill-opacity="0.85"/><circle cx="159" cy="433" r="2.2" fill="#f07820" fill-opacity="0.85"/><circle cx="256" cy="509" r="2.2" fill="#f07820" fill-opacity="0.85"/><circle cx="394" cy="573" r="2.2" fill="#f07820" fill-opacity="0.85"/><circle cx="373" cy="528" r="2.2" fill="#f07820" fill-opacity="0.85"/><circle cx="325" cy="560" r="2.2" fill="#f07820" fill-opacity="0.85"/><circle cx="256" cy="172" r="2.2" fill="#f07820" fill-opacity="0.85"/><circle cx="180" cy="484" r="2.2" fill="#f07820" fill-opacity="0.85"/><circle cx="62" cy="420" r="2.2" fill="#f07820" fill-opacity="0.85"/><circle cx="76" cy="484" r="2.2" fill="#f07820" fill-opacity="0.85"/><circle cx="76" cy="585" r="2.2" fill="#f07820" fill-opacity="0.85"/><circle cx="373" cy="433" r="2.2" fill="#f07820" fill-opacity="0.85"/><circle cx="48" cy="547" r="2.2" fill="#f07820" fill-opacity="0.85"/><circle cx="311" cy="223" r="2.2" fill="#f07820" fill-opacity="0.85"/><circle cx="69" cy="560" r="2.2" fill="#f07820" fill-opacity="0.85"/><circle cx="97" cy="579" r="2.2" fill="#f07820" fill-opacity="0.85"/><g font-family="Georgia,serif" font-size="13" fill="#c9d2d9"><circle cx="30" cy="640" r="4" fill="#f07820"/><text x="42" y="644">Industrial facilities</text><line x1="150" y1="640" x2="182" y2="640" stroke="#7d8a93" stroke-width="2"/><text x="190" y="644">Energy infrastructure &amp; network context</text><rect x="470" y="632" width="16" height="14" fill="#2f7d6b" fill-opacity="0.2"/><text x="492" y="644">Spatial constraints (stylised)</text></g></svg>